<svg width="351" height="105" xmlns="http://www.w3.org/2000/svg" xmlns:xlink="http://www.w3.org/1999/xlink" xml:space="preserve" overflow="hidden"><defs><clipPath id="clip0"><rect x="0" y="0" width="351" height="105"/></clipPath><clipPath id="clip1"><path d="M9.29965 23.8066 19.1101 78.8569 51.9994 78.585 60.8233 23.3736Z"/></clipPath></defs><g clip-path="url(#clip0)"><text fill="#6E4F7D" font-family="Lato,Lato_MSFontService,sans-serif" font-weight="700" font-size="49" transform="matrix(1.00023 0 0 1.00023 61.0273 79)">AnnexBios</text><g clip-path="url(#clip1)"><path d="M27.5551 94.6361 20.9933 95.85 2.9404-1.83789 9.50223-3.05179Z" fill="#6E4F7D"/><path d="M39.2379 94.4865 32.8396 95.5886 14.7867-2.09933 21.1851-3.20145Z" fill="#6E4F7D"/><path d="M50.9348 94.3401 44.8071 95.4909 26.7542-2.19699 32.8819-3.34784Z" fill="#6E4F7D"/><path d="M62.6069 94.3295 56.6407 95.3682 38.5879-2.31976 44.554-3.35843Z" fill="#6E4F7D"/><path d="M74.2908 94.18 68.5982 95.268 50.5453-2.41989 56.2379-3.5079Z" fill="#6E4F7D"/></g><path d="M64.1002 23.7169C64.0928 25.1511 62.9452 26.3188 61.5114 26.3512L7.70386 26.9428C6.26968 26.9353 5.10196 25.7878 5.06958 24.3539 5.07697 22.9198 6.22455 21.752 7.65839 21.7196L61.4659 21.1281C62.8761 21.1919 64.0118 22.308 64.1002 23.7169" fill="#6E4F7D"/><path d="M59.2944 17.2976 59.442 16.4786C59.7163 13.9699 57.9302 11.7039 55.4268 11.3846 55.1506 11.3127 54.861 11.309 54.5831 11.3738 54.052 9.65533 52.5752 8.39899 50.7939 8.15002 49.4766 7.95966 48.1461 8.39685 47.1985 9.33142 46.5442 7.47888 44.7784 6.25232 42.8141 6.28589 41.4146 6.26459 40.0904 6.91772 39.2555 8.04108 38.549 6.22913 36.8158 5.02515 34.8711 4.99554 33.4335 4.98303 32.0863 5.69537 31.2874 6.8905 30.4406 5.74237 29.0881 5.07806 27.6618 5.10992 25.8657 5.18719 24.2611 6.25555 23.497 7.883 22.5799 6.99658 21.3694 6.47754 20.095 6.42426 17.9796 6.48126 16.1611 7.94012 15.6466 9.9928L14.2813 9.74677C11.7916 9.74414 9.77115 11.7604 9.76855 14.2501 9.76849 14.3105 9.76965 14.371 9.772 14.4315 9.73874 14.7698 9.77286 15.1114 9.87241 15.4364 7.74042 15.915 6.22684 17.8101 6.23141 19.9951 6.22891 22.4848 8.24524 24.5051 10.735 24.5076 10.795 24.5076 10.8551 24.5065 10.9151 24.5042 12.0694 24.5408 13.1826 24.0737 13.9651 23.2244 14.8281 24.2717 16.1216 24.8681 17.4784 24.8445 18.9396 24.8249 20.3108 24.1354 21.1979 22.9741 22.0446 24.1223 23.3972 24.7866 24.8235 24.7547 25.8701 24.7465 26.8828 24.3828 27.6956 23.7234 28.5999 24.7968 29.9425 25.4017 31.3456 25.3681 32.5538 25.3257 33.7011 24.8273 34.5566 23.9731L35.922 24.2192C36.0588 24.2439 36.3561 24.1562 36.493 24.1808 37.3278 25.6514 38.8758 26.5731 40.5664 26.6063 43.0561 26.6088 45.0765 24.5927 45.0791 22.1029 45.0792 22.0425 45.078 21.9821 45.0757 21.9216L45.1003 21.7847C45.3977 21.697 45.5345 21.7217 45.8316 21.6349 46.3102 23.767 48.2053 25.2806 50.3903 25.2759 51.7419 25.2508 53.0221 24.6645 53.9242 23.6576 54.5226 25.2288 55.9738 26.3137 57.6501 26.4432 60.1589 26.7175 62.4249 24.9313 62.7441 22.4279 63.0155 20.1025 61.5539 17.9254 59.2987 17.2964" fill="#6E4F7D"/><path d="M209.99 85.9553 227.199 85.9564 227.201 93.7101 209.992 93.709Z" stroke="#FF0000" stroke-width="0.376178" fill="#FFFFFF"/><path d="M209.221 83.6557 209.217 84.1095 209.936 84.1006C210.165 84.0836 210.342 84.2134 210.331 84.326L210.34 85.4612C210.33 85.5737 210.165 85.7103 209.941 85.6896L209.222 85.6985 209.223 94.284 210.092 94.289C210.321 94.2719 210.498 94.4018 210.487 94.5143L210.496 95.6495C210.486 95.7621 210.321 95.8986 210.097 95.8779L209.228 95.8729 209.231 96.251 299.29 96.2134 299.278 93.4894 297.123 93.4792 297.133 86.4079 299.288 86.418 299.282 83.6183 209.225 83.6581ZM211.641 84.0682 212.847 84.0661C213.076 84.049 213.253 84.1789 213.242 84.2915L213.251 85.4266C213.241 85.5392 213.076 85.6757 212.852 85.655L211.646 85.6572C211.418 85.6742 211.241 85.5443 211.251 85.4318L211.242 84.2966C211.253 84.1841 211.45 84.0888 211.641 84.0682ZM214.59 84.0754 215.796 84.0732C216.025 84.0562 216.202 84.1861 216.191 84.2986L216.2 85.4338C216.19 85.5464 216.025 85.6829 215.801 85.6622L214.595 85.6643C214.367 85.6814 214.19 85.5515 214.2 85.4389L214.192 84.3038C214.2 84.191 214.361 84.0924 214.589 84.0763ZM217.504 84.0793 218.71 84.0771C218.938 84.06 219.115 84.1899 219.105 84.3025L219.114 85.4376C219.103 85.5502 218.939 85.6867 218.715 85.666L217.509 85.6682C217.28 85.6852 217.103 85.5554 217.114 85.4428L217.105 84.3076C217.115 84.1951 217.316 84.062 217.504 84.0793ZM220.453 84.0874 221.659 84.0853C221.888 84.0682 222.064 84.1981 222.054 84.3107L222.063 85.4458C222.052 85.5584 221.888 85.6949 221.664 85.6742L220.458 85.6764C220.229 85.6934 220.052 85.5635 220.063 85.451L220.054 84.3158C220.068 84.1654 220.229 84.0667 220.453 84.0874ZM223.37 84.0554 224.576 84.0533C224.804 84.0362 224.981 84.1661 224.971 84.2786L224.979 85.4138C224.969 85.5264 224.805 85.6629 224.58 85.6422L223.375 85.6443C223.146 85.6614 222.969 85.5315 222.979 85.419L222.971 84.2838C222.981 84.1712 223.179 84.076 223.37 84.0554ZM226.319 84.0636 227.525 84.0614C227.753 84.0444 227.93 84.1742 227.92 84.2868L227.928 85.422C227.918 85.5345 227.754 85.6711 227.53 85.6504L226.324 85.6525C226.095 85.6696 225.918 85.5397 225.929 85.4271L225.92 84.292C225.93 84.1794 226.091 84.0807 226.319 84.0636ZM229.232 84.0674 230.438 84.0653C230.667 84.0482 230.844 84.1781 230.833 84.2907L230.842 85.4258C230.831 85.5384 230.667 85.6749 230.443 85.6542L229.237 85.6564C229.008 85.6734 228.832 85.5435 228.842 85.431L228.833 84.2958C228.844 84.1833 229.005 84.0846 229.232 84.0674ZM232.181 84.0756 233.387 84.0734C233.616 84.0564 233.793 84.1863 233.782 84.2988L233.791 85.434C233.781 85.5466 233.616 85.6831 233.392 85.6624L232.186 85.6645C231.958 85.6816 231.781 85.5517 231.791 85.4391L231.782 84.304C231.793 84.1914 231.957 84.0549 232.181 84.0756ZM235.095 84.0794 236.301 84.0773C236.529 84.0602 236.706 84.1901 236.696 84.3027L236.704 85.4378C236.694 85.5504 236.53 85.6869 236.305 85.6662L235.1 85.6684C234.871 85.6855 234.694 85.5556 234.704 85.443L234.696 84.3078C234.706 84.1953 234.871 84.0587 235.095 84.0794ZM238.044 84.0866 239.25 84.0845C239.478 84.0674 239.655 84.1973 239.645 84.3099L239.654 85.445C239.643 85.5576 239.479 85.6941 239.255 85.6734L238.049 85.6756C237.82 85.6926 237.643 85.5627 237.654 85.4502L237.645 84.315C237.659 84.1646 237.82 84.0659 238.044 84.0866ZM240.961 84.0546 242.166 84.0525C242.395 84.0354 242.572 84.1653 242.562 84.2778L242.57 85.413C242.56 85.5256 242.396 85.6621 242.171 85.6414L240.966 85.6436C240.737 85.6606 240.56 85.5307 240.57 85.4182L240.562 84.283C240.572 84.1704 240.733 84.0718 240.961 84.0546ZM243.91 84.0618 245.116 84.0596C245.344 84.0426 245.521 84.1724 245.511 84.285L245.52 85.4202C245.509 85.5327 245.345 85.6693 245.121 85.6486L243.915 85.6507C243.686 85.6678 243.509 85.5379 243.52 85.4253L243.511 84.2902C243.483 84.1741 243.682 84.0789 243.91 84.0618ZM246.823 84.0656 248.029 84.0635C248.258 84.0464 248.435 84.1763 248.424 84.2889L248.433 85.424C248.422 85.5366 248.258 85.6731 248.034 85.6524L246.828 85.6546C246.599 85.6716 246.423 85.5418 246.433 85.4292L246.415 84.2962C246.425 84.1836 246.586 84.0849 246.814 84.0678ZM249.772 84.0728 250.978 84.0707C251.207 84.0536 251.384 84.1835 251.373 84.2961L251.382 85.4312C251.372 85.5438 251.207 85.6803 250.983 85.6596L249.777 85.6617C249.549 85.6788 249.372 85.5489 249.382 85.4364L249.374 84.3012C249.337 84.1843 249.539 84.0513 249.763 84.072ZM252.686 84.0767 253.892 84.0745C254.12 84.0575 254.297 84.1873 254.287 84.2999L254.295 85.435C254.285 85.5476 254.121 85.6841 253.897 85.6635L252.691 85.6656C252.462 85.6827 252.285 85.5528 252.296 85.4402L252.287 84.3051C252.29 84.1546 252.451 84.0559 252.676 84.0767ZM255.638 84.048 256.844 84.0458C257.073 84.0288 257.25 84.1586 257.239 84.2712L257.248 85.4064C257.238 85.5189 257.073 85.6555 256.849 85.6348L255.643 85.6369C255.415 85.654 255.238 85.5241 255.248 85.4115L255.239 84.2764C255.212 84.1603 255.411 84.0651 255.638 84.048ZM258.552 84.0528 259.757 84.0507C259.986 84.0336 260.163 84.1635 260.153 84.2761L260.161 85.4112C260.151 85.5238 259.987 85.6603 259.762 85.6396L258.557 85.6418C258.328 85.6588 258.151 85.529 258.161 85.4164L258.153 84.2812C258.163 84.1687 258.324 84.07 258.552 84.0528ZM261.501 84.06 262.707 84.0578C262.935 84.0408 263.112 84.1707 263.102 84.2832L263.111 85.4184C263.1 85.5309 262.936 85.6675 262.712 85.6468L261.506 85.6489C261.277 85.666 261.1 85.5361 261.111 85.4236L261.102 84.2884C261.074 84.1723 261.273 84.0771 261.501 84.06ZM264.414 84.0638 265.62 84.0617C265.849 84.0446 266.026 84.1745 266.015 84.2871L266.024 85.4222C266.014 85.5348 265.849 85.6713 265.625 85.6506L264.419 85.6528C264.191 85.6698 264.014 85.54 264.024 85.4274L264.015 84.2923C264.013 84.1785 264.177 84.0419 264.401 84.0627ZM267.327 84.0687 268.533 84.0666C268.762 84.0495 268.939 84.1794 268.929 84.2919L268.937 85.4271C268.927 85.5397 268.762 85.6762 268.538 85.6555L267.332 85.6576C267.104 85.6747 266.927 85.5448 266.937 85.4323L266.929 84.2971C266.925 84.1812 267.126 84.0501 267.314 84.0674ZM270.277 84.0759 271.483 84.0737C271.711 84.0567 271.888 84.1865 271.878 84.2991L271.886 85.4343C271.876 85.5468 271.712 85.6834 271.488 85.6627L270.282 85.6648C270.053 85.6819 269.876 85.552 269.887 85.4394L269.878 84.3043C269.878 84.1526 270.038 84.0538 270.263 84.0746ZM273.193 84.0439 274.399 84.0417C274.628 84.0247 274.805 84.1545 274.794 84.2671L274.803 85.4023C274.793 85.5148 274.628 85.6514 274.404 85.6306L273.198 85.6328C272.97 85.6499 272.793 85.52 272.803 85.4074L272.795 84.2723C272.789 84.1572 272.984 84.0617 273.179 84.0415ZM276.143 84.051 277.349 84.0489C277.577 84.0318 277.754 84.1617 277.744 84.2743L277.752 85.4094C277.742 85.522 277.578 85.6585 277.353 85.6378L276.148 85.64C275.919 85.657 275.742 85.5272 275.752 85.4146L275.744 84.2794C275.739 84.1645 275.897 84.0655 276.128 84.0497ZM279.056 84.0549 280.262 84.0527C280.491 84.0357 280.667 84.1656 280.657 84.2781L280.666 85.4133C280.655 85.5258 280.491 85.6624 280.267 85.6417L279.061 85.6438C278.832 85.6609 278.655 85.531 278.666 85.4184L278.657 84.2833C278.668 84.1707 278.865 84.0754 279.056 84.0549ZM282.005 84.0621 283.211 84.0599C283.44 84.0428 283.617 84.1727 283.606 84.2853L283.615 85.4204C283.605 85.533 283.44 85.6696 283.216 85.6488L282.01 85.651C281.782 85.6681 281.605 85.5382 281.615 85.4256L281.606 84.2905C281.6 84.1763 281.764 84.0448 281.989 84.0656ZM284.919 84.0659 286.124 84.0638C286.353 84.0467 286.53 84.1766 286.52 84.2892L286.528 85.4243C286.518 85.5369 286.354 85.6734 286.129 85.6527L284.924 85.6548C284.695 85.6719 284.518 85.542 284.528 85.4295L284.52 84.2943C284.534 84.1439 284.731 84.0486 284.919 84.0659ZM287.868 84.0741 289.074 84.0719C289.302 84.0549 289.479 84.1848 289.469 84.2973L289.477 85.4325C289.467 85.545 289.303 85.6816 289.079 85.6609L287.873 85.663C287.644 85.6801 287.467 85.5502 287.478 85.4376L287.469 84.3025C287.483 84.1521 287.644 84.0534 287.868 84.0741ZM290.784 84.0421 291.99 84.0399C292.219 84.0229 292.396 84.1527 292.385 84.2653L292.394 85.4005C292.384 85.513 292.219 85.6496 291.995 85.6289L290.789 85.631C290.561 85.6481 290.384 85.5182 290.394 85.4056L290.386 84.2705C290.377 84.1552 290.575 84.0599 290.77 84.0397ZM293.734 84.0502 294.939 84.0481C295.168 84.031 295.345 84.1609 295.335 84.2735L295.343 85.4086C295.333 85.5212 295.169 85.6577 294.944 85.637L293.738 85.6392C293.51 85.6562 293.333 85.5264 293.343 85.4138L293.335 84.2786C293.345 84.1661 293.506 84.0674 293.734 84.0502ZM296.647 84.0541 297.853 84.052C298.081 84.0349 298.258 84.1648 298.248 84.2773L298.257 85.4125C298.246 85.5251 298.082 85.6616 297.858 85.6409L296.652 85.643C296.423 85.6601 296.246 85.5302 296.257 85.4176L296.248 84.2825C296.238 84.167 296.397 84.03 296.627 84.0513ZM210.879 86.38 226.574 86.393 226.564 93.4644 210.869 93.4514 210.879 86.38ZM228.125 86.3846 243.82 86.3975 243.81 93.4689 228.115 93.4559 228.125 86.3846ZM245.372 86.3891 261.066 86.4021 261.056 93.4735 245.362 93.4605 245.372 86.3891ZM262.656 86.359 278.351 86.3719 278.34 93.4433 262.646 93.4304 262.656 86.359ZM279.902 86.3635 295.577 86.3757 295.567 93.4471 279.873 93.4341 279.883 86.3628ZM211.846 94.2982 213.052 94.2961C213.28 94.279 213.457 94.4089 213.447 94.5214L213.455 95.6566C213.445 95.7692 213.281 95.9057 213.057 95.885L211.851 95.8871C211.622 95.9042 211.445 95.7743 211.456 95.6617L211.432 94.5282C211.408 94.3743 211.606 94.2791 211.83 94.2998ZM214.762 94.2662 215.968 94.264C216.197 94.247 216.374 94.3769 216.363 94.4894L216.372 95.6246C216.362 95.7372 216.197 95.8737 215.973 95.853L214.767 95.8551C214.539 95.8722 214.362 95.7423 214.372 95.6298L214.348 94.4962C214.359 94.3836 214.52 94.2849 214.747 94.2678ZM217.712 94.2734 218.918 94.2712C219.146 94.2542 219.323 94.384 219.313 94.4966L219.321 95.6317C219.311 95.7443 219.147 95.8809 218.922 95.8602L217.717 95.8623C217.488 95.8794 217.311 95.7495 217.321 95.6369L217.313 94.5018C217.285 94.3857 217.484 94.2905 217.712 94.2734ZM220.625 94.2772 221.831 94.2751C222.06 94.258 222.236 94.3879 222.226 94.5005L222.235 95.6356C222.224 95.7482 222.06 95.8847 221.836 95.864L220.63 95.8661C220.401 95.8832 220.224 95.7534 220.235 95.6408L220.226 94.5056C220.237 94.3931 220.397 94.2944 220.625 94.2772ZM223.574 94.2844 224.78 94.2822C225.009 94.2652 225.186 94.3951 225.175 94.5076L225.184 95.6428C225.174 95.7554 225.009 95.8919 224.785 95.8712L223.579 95.8733C223.351 95.8904 223.174 95.7605 223.184 95.6479L223.175 94.5128C223.148 94.3967 223.35 94.2637 223.574 94.2844ZM226.488 94.2892 227.693 94.2871C227.922 94.27 228.099 94.3999 228.089 94.5125L228.097 95.6476C228.087 95.7602 227.922 95.8967 227.698 95.876L226.492 95.8782C226.264 95.8952 226.087 95.7654 226.097 95.6528L226.089 94.5177C226.103 94.3672 226.263 94.2685 226.488 94.2892ZM229.404 94.2572 230.61 94.2551C230.839 94.238 231.016 94.3679 231.005 94.4805L231.014 95.6156C231.003 95.7282 230.839 95.8647 230.615 95.844L229.409 95.8462C229.18 95.8632 229.004 95.7334 229.014 95.6208L229.005 94.4857C229.016 94.3731 229.213 94.2778 229.404 94.2572ZM232.353 94.2644 233.559 94.2623C233.788 94.2452 233.965 94.3751 233.954 94.4876L233.963 95.6228C233.953 95.7354 233.788 95.8719 233.564 95.8512L232.358 95.8533C232.13 95.8704 231.953 95.7405 231.963 95.6279L231.955 94.4928C231.965 94.3802 232.126 94.2816 232.353 94.2644ZM235.267 94.2683 236.473 94.2661C236.701 94.2491 236.878 94.3789 236.868 94.4915L236.876 95.6266C236.866 95.7392 236.702 95.8758 236.478 95.8551L235.272 95.8572C235.043 95.8743 234.866 95.7444 234.877 95.6318L234.868 94.4967C234.878 94.3841 235.076 94.2888 235.267 94.2683ZM238.216 94.2764 239.422 94.2743C239.65 94.2572 239.827 94.3871 239.817 94.4997L239.826 95.6348C239.815 95.7474 239.651 95.8839 239.427 95.8632L238.221 95.8654C237.992 95.8824 237.815 95.7525 237.826 95.64L237.817 94.5048C237.827 94.3923 237.992 94.2557 238.216 94.2764ZM241.129 94.2803 242.335 94.2781C242.564 94.2611 242.741 94.391 242.73 94.5035L242.739 95.6387C242.729 95.7513 242.564 95.8878 242.34 95.8671L241.134 95.8692C240.906 95.8863 240.729 95.7564 240.739 95.6438L240.73 94.5087C240.741 94.3961 240.942 94.263 241.129 94.2803ZM244.079 94.2874 245.284 94.2853C245.513 94.2682 245.69 94.3981 245.68 94.5107L245.688 95.6458C245.678 95.7584 245.513 95.8949 245.289 95.8742L244.083 95.8764C243.855 95.8935 243.678 95.7636 243.688 95.651L243.68 94.5159C243.694 94.3654 243.854 94.2668 244.079 94.2874ZM246.995 94.2554 248.201 94.2533C248.43 94.2362 248.607 94.3661 248.596 94.4787L248.605 95.6138C248.594 95.7264 248.43 95.8629 248.206 95.8422L247 95.8444C246.772 95.8615 246.595 95.7316 246.605 95.619L246.596 94.4839C246.607 94.3713 246.804 94.276 246.995 94.2554ZM249.944 94.2626 251.15 94.2605C251.379 94.2434 251.556 94.3733 251.545 94.4859L251.554 95.621C251.544 95.7336 251.379 95.8701 251.155 95.8494L249.949 95.8515C249.721 95.8686 249.544 95.7387 249.554 95.6262L249.546 94.491C249.556 94.3784 249.717 94.2798 249.944 94.2626ZM252.858 94.2665 254.064 94.2643C254.292 94.2473 254.469 94.3771 254.459 94.4897L254.467 95.6249C254.457 95.7374 254.293 95.874 254.069 95.8533L252.863 95.8554C252.634 95.8725 252.457 95.7426 252.468 95.63L252.428 94.497C252.438 94.3844 252.636 94.2892 252.826 94.2686ZM255.807 94.2737 257.013 94.2715C257.242 94.2544 257.418 94.3843 257.408 94.4969L257.417 95.632C257.406 95.7446 257.242 95.8811 257.018 95.8604L255.812 95.8626C255.583 95.8796 255.406 95.7498 255.417 95.6372L255.408 94.502C255.419 94.3895 255.583 94.2529 255.807 94.2737ZM258.72 94.2775 259.926 94.2754C260.155 94.2583 260.332 94.3882 260.321 94.5007L260.33 95.6359C260.32 95.7485 260.155 95.885 259.931 95.8643L258.725 95.8664C258.497 95.8835 258.32 95.7536 258.33 95.6411L258.322 94.5059C258.335 94.3555 258.496 94.2568 258.72 94.2775ZM261.673 94.2488 262.879 94.2467C263.107 94.2296 263.284 94.3595 263.274 94.472L263.283 95.6072C263.272 95.7198 263.108 95.8563 262.884 95.8356L261.678 95.8377C261.449 95.8548 261.272 95.7249 261.283 95.6124L261.274 94.4772C261.284 94.3646 261.445 94.266 261.673 94.2488ZM264.586 94.2537 265.792 94.2515C266.021 94.2344 266.198 94.3643 266.187 94.4769L266.196 95.612C266.186 95.7246 266.021 95.8612 265.797 95.8405L264.591 95.8426C264.362 95.8596 264.186 95.7298 264.196 95.6172L264.187 94.4821C264.198 94.3695 264.359 94.2708 264.586 94.2537ZM267.535 94.2608 268.741 94.2587C268.97 94.2416 269.147 94.3715 269.136 94.4841L269.145 95.6192C269.135 95.7318 268.97 95.8683 268.746 95.8476L267.54 95.8498C267.312 95.8668 267.135 95.737 267.145 95.6244L267.137 94.4892C267.147 94.3767 267.308 94.278 267.535 94.2608ZM270.449 94.2647 271.655 94.2625C271.883 94.2455 272.06 94.3754 272.05 94.4879L272.059 95.6231C272.048 95.7356 271.884 95.8722 271.66 95.8515L270.454 95.8536C270.225 95.8707 270.048 95.7408 270.059 95.6282L270.05 94.4931C270.029 94.3787 270.194 94.2421 270.419 94.2629ZM273.398 94.2728 274.604 94.2707C274.832 94.2536 275.009 94.3835 274.999 94.4961L275.008 95.6312C274.997 95.7438 274.833 95.8804 274.609 95.8596L273.403 95.8618C273.174 95.8788 272.997 95.749 273.008 95.6364L272.999 94.5013C273.013 94.3508 273.174 94.2521 273.398 94.2728ZM276.311 94.2767 277.517 94.2746C277.746 94.2575 277.923 94.3874 277.912 94.5L277.921 95.6351C277.911 95.7477 277.746 95.8842 277.522 95.8635L276.316 95.8656C276.088 95.8827 275.911 95.7528 275.921 95.6403L275.912 94.5051C275.926 94.3547 276.087 94.256 276.311 94.2767ZM279.264 94.248 280.47 94.2459C280.698 94.2288 280.875 94.3587 280.865 94.4713L280.874 95.6064C280.863 95.719 280.699 95.8555 280.475 95.8348L279.269 95.837C279.04 95.854 278.863 95.7241 278.874 95.6116L278.865 94.4764C278.875 94.3638 279.036 94.2652 279.264 94.248ZM282.177 94.2519 283.383 94.2497C283.612 94.2327 283.789 94.3625 283.778 94.4751L283.787 95.6103C283.777 95.7228 283.612 95.8594 283.388 95.8387L282.182 95.8408C281.954 95.8579 281.777 95.728 281.787 95.6154L281.778 94.4803C281.789 94.3677 281.95 94.269 282.177 94.2519ZM285.126 94.259 286.332 94.2569C286.561 94.2398 286.738 94.3697 286.728 94.4823L286.736 95.6174C286.726 95.73 286.561 95.8665 286.337 95.8458L285.131 95.848C284.903 95.865 284.726 95.7352 284.736 95.6226L284.728 94.4874C284.738 94.3749 284.899 94.2762 285.126 94.259ZM288.04 94.2629 289.246 94.2608C289.474 94.2437 289.651 94.3736 289.641 94.4861L289.65 95.6213C289.639 95.7339 289.475 95.8704 289.251 95.8497L288.045 95.8518C287.816 95.8689 287.639 95.739 287.65 95.6264L287.641 94.4913C287.651 94.3787 287.816 94.2422 288.04 94.2629ZM290.989 94.2701 292.195 94.2679C292.424 94.2509 292.601 94.3807 292.59 94.4933L292.599 95.6284C292.588 95.741 292.424 95.8776 292.2 95.8569L290.994 95.859C290.765 95.8761 290.588 95.7462 290.599 95.6336L290.59 94.4985C290.566 94.3445 290.765 94.2494 290.989 94.2701ZM293.906 94.2381 295.112 94.2359C295.34 94.2188 295.517 94.3487 295.507 94.4613L295.515 95.5965C295.505 95.709 295.341 95.8456 295.117 95.8249L293.911 95.827C293.682 95.8441 293.505 95.7142 293.516 95.6016L293.507 94.4665C293.517 94.3539 293.678 94.2552 293.906 94.2381ZM296.819 94.2419 298.025 94.2398C298.254 94.2227 298.431 94.3526 298.42 94.4651L298.429 95.6003C298.418 95.7129 298.254 95.8494 298.03 95.8287L296.824 95.8309C296.595 95.8479 296.419 95.718 296.429 95.6055L296.42 94.4703C296.431 94.3577 296.628 94.2625 296.819 94.2419Z" stroke="#6E4F7D" stroke-width="0.265126" fill="#6E4F7D"/><text fill="#6E4F7D" font-family="Lato,Lato_MSFontService,sans-serif" font-weight="700" font-size="29" transform="matrix(1.00023 0 0 1.00023 302.989 73)">| </text><text fill="#6E4F7D" font-family="Lato,Lato_MSFontService,sans-serif" font-weight="700" font-size="24" transform="matrix(1.00023 0 0 1.00023 317.992 73)">???</text></g></svg>